<mxfile host="app.diagrams.net" modified="2022-10-15T17:33:12.694Z" agent="5.0 (X11; Ubuntu)" etag="yssjunsjZWUd84QK6yoZ" version="20.4.1" type="github">
  <diagram id="GpSc441NNI5Z_dR7PpIh" name="Page-1">
    <mxGraphModel dx="794" dy="481" grid="1" gridSize="10" guides="1" tooltips="1" connect="1" arrows="1" fold="1" page="1" pageScale="1" pageWidth="850" pageHeight="1100" math="0" shadow="0">
      <root>
        <mxCell id="0" />
        <mxCell id="1" parent="0" />
        <mxCell id="7Z3-V8JIYLMfZ71KOIE2-3" style="edgeStyle=orthogonalEdgeStyle;shape=flexArrow;rounded=0;orthogonalLoop=1;jettySize=auto;html=1;exitX=1;exitY=0.5;exitDx=0;exitDy=0;entryX=0;entryY=0.5;entryDx=0;entryDy=0;entryPerimeter=0;" edge="1" parent="1" source="7Z3-V8JIYLMfZ71KOIE2-1" target="7Z3-V8JIYLMfZ71KOIE2-2">
          <mxGeometry relative="1" as="geometry" />
        </mxCell>
        <mxCell id="7Z3-V8JIYLMfZ71KOIE2-1" value="Producer" style="rounded=0;whiteSpace=wrap;html=1;" vertex="1" parent="1">
          <mxGeometry x="100" y="160" width="120" height="60" as="geometry" />
        </mxCell>
        <mxCell id="7Z3-V8JIYLMfZ71KOIE2-5" style="edgeStyle=orthogonalEdgeStyle;shape=flexArrow;rounded=0;orthogonalLoop=1;jettySize=auto;html=1;exitX=1;exitY=0.5;exitDx=0;exitDy=0;exitPerimeter=0;entryX=0;entryY=0.5;entryDx=0;entryDy=0;" edge="1" parent="1" source="7Z3-V8JIYLMfZ71KOIE2-2" target="7Z3-V8JIYLMfZ71KOIE2-4">
          <mxGeometry relative="1" as="geometry" />
        </mxCell>
        <mxCell id="7Z3-V8JIYLMfZ71KOIE2-2" value="" style="shape=cylinder3;whiteSpace=wrap;html=1;boundedLbl=1;backgroundOutline=1;size=15;" vertex="1" parent="1">
          <mxGeometry x="310" y="150" width="60" height="80" as="geometry" />
        </mxCell>
        <mxCell id="7Z3-V8JIYLMfZ71KOIE2-4" value="Consumer" style="rounded=0;whiteSpace=wrap;html=1;" vertex="1" parent="1">
          <mxGeometry x="440" y="160" width="120" height="60" as="geometry" />
        </mxCell>
        <mxCell id="7Z3-V8JIYLMfZ71KOIE2-6" value="" style="html=1;verticalLabelPosition=bottom;align=center;labelBackgroundColor=#ffffff;verticalAlign=top;strokeWidth=2;strokeColor=#0080F0;shadow=0;dashed=0;shape=mxgraph.ios7.icons.mail;" vertex="1" parent="1">
          <mxGeometry x="240" y="150" width="30" height="16.5" as="geometry" />
        </mxCell>
        <mxCell id="7Z3-V8JIYLMfZ71KOIE2-7" value="" style="html=1;verticalLabelPosition=bottom;align=center;labelBackgroundColor=#ffffff;verticalAlign=top;strokeWidth=2;strokeColor=#0080F0;shadow=0;dashed=0;shape=mxgraph.ios7.icons.mail;" vertex="1" parent="1">
          <mxGeometry x="390" y="150" width="30" height="16.5" as="geometry" />
        </mxCell>
      </root>
    </mxGraphModel>
  </diagram>
</mxfile>
